<svg version="1.1" id="Layer_1" xmlns="http://www.w3.org/2000/svg" xmlns:xlink="http://www.w3.org/1999/xlink" x="0px" y="0px"
	 width="100%" viewBox="0 0 1024 1024" enable-background="new 0 0 1024 1024" xml:space="preserve">
<path fill="#000000" opacity="1.000000" stroke="none" 
	d="
M636.295776,336.031311 
	C638.418579,371.514160 640.079651,406.575104 646.924866,442.335358 
	C648.946838,438.720642 648.636047,436.186371 648.639160,433.720917 
	C648.664246,413.890564 648.658264,394.060242 648.663391,374.229889 
	C648.663757,372.896759 648.700562,371.563232 648.678833,370.230591 
	C648.646606,368.253021 648.966248,366.360748 651.337463,366.148407 
	C653.909180,365.918091 654.893921,367.938416 655.123535,369.960693 
	C655.682861,374.886536 655.953003,379.845734 656.316833,384.793152 
	C657.999268,407.675018 659.582825,430.564819 661.421204,453.434113 
	C661.833435,458.562408 665.587097,462.167725 669.264099,465.194061 
	C676.584106,471.218811 684.117065,477.022797 691.881165,482.462402 
	C710.583435,495.565521 729.944641,507.610626 750.487122,517.675964 
	C752.021667,518.427795 754.056946,518.766052 754.473877,520.931946 
	C753.585754,522.483887 752.119385,522.084045 750.861938,522.094971 
	C732.716064,522.253540 714.574097,521.753845 696.420654,522.068054 
	C687.428772,522.223694 679.553711,517.416138 671.458984,513.941162 
	C652.420105,505.768127 634.942810,494.715363 616.955200,484.600922 
	C613.923828,482.896393 610.823059,481.315247 607.424072,480.109009 
	C622.821533,495.525940 640.830444,507.846252 657.846863,522.100342 
	C655.226013,523.569885 653.791077,522.120178 652.286255,521.469788 
	C636.315125,514.567139 622.051270,504.652100 607.173035,495.824219 
	C583.253296,481.631714 559.073730,467.899384 534.594482,454.697113 
	C530.353455,452.409760 526.547668,449.302917 520.825317,447.609406 
	C529.937561,458.348999 540.107788,466.748260 549.751953,475.654175 
	C559.553284,484.705200 570.159851,492.757996 581.332703,500.068298 
	C592.399231,507.309052 603.725098,514.124451 615.060852,520.952637 
	C552.609070,520.952637 490.157318,520.952637 427.043823,520.952637 
	C428.613800,514.768372 433.852570,512.728821 435.845581,507.820923 
	C432.972687,508.277222 430.807007,509.606201 428.554474,510.753540 
	C424.107086,513.018799 419.553040,515.081787 415.161469,517.448059 
	C407.891815,521.365112 400.085541,522.417480 391.993378,522.256042 
	C376.518219,521.947205 361.042572,521.661621 345.567261,521.359619 
	C343.732635,521.323792 341.870667,521.311340 340.499207,518.800293 
	C343.323761,515.745361 346.281616,512.546326 349.239441,509.347260 
	C344.235321,509.508606 340.290100,511.752289 336.731262,514.132751 
	C320.925446,524.704712 303.276367,522.215637 285.907135,521.931519 
	C281.780548,521.864014 277.656097,521.563843 273.530731,521.564819 
	C271.531311,521.565369 269.592865,521.614319 267.213470,520.491455 
	C275.047028,516.100220 282.599213,512.032349 289.990906,507.691193 
	C309.815948,496.048004 329.395447,484.018280 347.627533,469.937744 
	C351.058746,467.287872 354.438690,464.589417 357.236023,461.233215 
	C360.238403,457.631012 361.604156,453.529785 361.685272,448.828033 
	C361.995300,430.851105 362.305328,412.872437 362.858887,394.901947 
	C363.273651,381.437012 364.099457,367.985107 364.654877,354.523804 
	C364.778961,351.516724 365.781952,349.430817 368.866028,348.568512 
	C373.013641,347.408844 375.066986,344.553711 375.744781,340.316742 
	C376.372406,336.393372 377.436066,332.537079 378.366089,328.665314 
	C380.244751,320.844360 386.320953,315.829681 394.383759,314.657043 
	C412.772003,311.982727 431.083099,308.749146 449.501373,306.316986 
	C473.592987,303.135620 497.180389,297.775146 520.582336,291.385864 
	C526.308228,289.822601 532.124268,290.275360 537.760437,292.276947 
	C539.798950,293.000854 541.806274,293.816681 543.859985,294.492981 
	C554.423096,297.971436 554.504944,297.954834 555.271057,308.796387 
	C555.763367,315.763123 556.079163,322.745880 556.309875,329.726898 
	C557.156982,355.367645 556.997131,381.029144 557.601868,406.665375 
	C557.900208,419.311615 557.088806,432.382233 562.280518,444.545349 
	C562.726562,445.590454 563.160339,446.640839 563.752136,448.052155 
	C565.840942,446.411407 565.649170,444.416565 565.648193,442.524963 
	C565.627808,404.865021 565.817261,367.202606 565.395264,329.547058 
	C565.302368,321.258514 565.140625,312.917938 564.653198,304.618073 
	C564.386475,300.075897 566.507202,299.024078 570.446411,300.038971 
	C571.413086,300.288025 572.384399,300.519928 573.347107,300.783264 
	C582.976807,303.417358 584.570557,305.216370 585.201782,315.259399 
	C586.025696,328.367310 586.453186,341.501953 587.399414,354.599945 
	C589.278687,380.612640 591.283203,406.617889 593.531006,432.600677 
	C593.887146,436.716644 594.301636,441.167236 596.963196,444.755402 
	C598.814148,444.326691 598.624878,442.987885 598.633972,441.909180 
	C598.806580,421.437958 598.079712,400.993225 596.767883,380.566315 
	C596.128479,370.610107 595.354492,360.659149 594.927856,350.693542 
	C594.358154,337.389832 594.153320,324.070648 593.608093,310.765656 
	C593.424683,306.290985 595.491699,305.145355 599.400146,305.915771 
	C600.868225,306.205109 602.324829,306.561768 603.773560,306.938171 
	C613.814270,309.546783 614.749756,311.306641 615.435791,321.840515 
	C616.869385,343.852875 618.026550,365.898224 621.153870,387.771362 
	C622.092468,394.335846 622.692078,400.948792 623.537476,408.329987 
	C625.113892,382.871674 624.586365,358.178070 624.655090,333.493713 
	C624.665771,329.660919 624.677246,325.828125 624.683777,321.995331 
	C624.690430,318.075317 626.757568,317.506897 629.949097,318.744446 
	C633.118347,319.973419 634.455872,322.683868 635.056396,325.676880 
	C635.707703,328.923187 635.898926,332.261780 636.295776,336.031311 
M537.381897,375.635925 
	C537.135925,393.062347 538.158691,410.416138 540.219177,427.712738 
	C542.346191,400.147583 542.203735,372.601593 540.127014,345.052032 
	C537.993042,354.831177 538.153687,364.794250 537.381897,375.635925 
M443.295288,442.157135 
	C445.327209,442.511139 445.632935,442.513580 445.654358,439.838257 
	C445.744904,428.525940 447.391968,417.247284 446.309540,405.908417 
	C445.826447,400.847931 445.572327,395.765594 445.115631,389.295532 
	C441.885986,394.918762 442.332611,399.601471 442.336823,404.182434 
	C442.348267,416.641510 441.337799,429.121552 443.295288,442.157135 
M501.044495,487.401215 
	C497.233032,485.211182 494.366028,486.355988 492.254028,489.950409 
	C490.552307,492.846466 491.759491,495.086884 494.108643,496.858215 
	C496.680725,498.797638 499.437775,499.005371 501.744110,496.536926 
	C504.369354,493.727234 504.838806,490.698425 501.044495,487.401215 
M409.353821,442.238495 
	C410.149292,445.575500 412.400452,447.030731 415.612701,446.358124 
	C417.857178,445.888123 419.607422,444.102509 419.315643,441.692261 
	C418.990417,439.005890 416.956268,437.079651 414.329346,436.757324 
	C411.152679,436.367554 409.491608,438.344452 409.353821,442.238495 
M397.909943,353.329254 
	C397.649628,353.290558 397.385620,353.211792 397.131012,353.235199 
	C397.043549,353.243225 396.935822,353.499603 396.911072,353.654297 
	C395.678009,361.363525 396.077789,369.094177 396.799805,376.843658 
	C397.690033,369.211700 399.596222,361.649536 397.909943,353.329254 
M475.682861,433.911682 
	C475.812469,432.277863 477.157654,430.084167 474.193909,429.727631 
	C472.902985,429.572357 472.169586,430.807159 472.190125,432.054871 
	C472.223969,434.110657 472.760803,435.753662 475.682861,433.911682 
z"/>
<path fill="#000000" opacity="1.000000" stroke="none" 
	d="
M759.997925,534.843872 
	C764.830078,534.809082 769.163086,534.813843 773.495056,534.748474 
	C777.335754,534.690613 779.344849,535.641724 778.496948,540.321411 
	C776.366150,552.081299 774.392090,563.854553 771.458679,575.461670 
	C770.475891,579.350708 768.544434,580.377258 764.802368,580.365845 
	C735.994141,580.278198 707.184753,580.248962 678.377075,580.425842 
	C661.053650,580.532166 643.732544,581.031433 626.410950,581.383057 
	C624.802734,581.415710 623.014648,581.084045 621.725342,583.064880 
	C623.201111,585.856079 625.968262,584.976929 628.188904,584.940125 
	C645.008118,584.660889 661.842590,583.582275 678.638550,584.027100 
	C703.948120,584.697388 729.249939,584.495605 754.555115,584.667053 
	C757.843201,584.689331 761.065369,585.486328 764.431885,584.984680 
	C767.380249,584.545410 768.323669,586.399597 767.337646,589.079346 
	C765.959595,592.824341 764.488159,596.535767 763.009521,600.242676 
	C762.181030,602.319824 760.438293,602.573181 758.466187,602.436096 
	C746.470947,601.602173 734.524841,603.176025 722.540710,603.252991 
	C715.855591,603.295898 709.262024,602.417236 702.599243,602.323364 
	C685.286255,602.079346 668.000732,604.399231 650.706238,603.123413 
	C635.585266,602.007996 620.432678,602.001526 605.357727,602.544434 
	C571.724609,603.755676 538.094543,602.879761 504.468689,603.405945 
	C433.704163,604.513428 362.934326,604.501709 292.166534,604.021423 
	C282.910065,603.958557 273.639709,604.064697 264.376129,603.855652 
	C261.294739,603.786011 259.891998,602.520020 258.852142,599.937134 
	C253.932190,587.716614 250.541473,575.057495 247.859955,562.190308 
	C247.093185,558.511047 248.188309,556.587219 252.406784,556.631226 
	C265.903320,556.772095 279.402435,556.651794 292.900482,556.673584 
	C302.609497,556.689270 312.262695,555.809631 323.093353,554.895081 
	C316.047546,552.873047 309.780487,552.946106 303.760925,552.646484 
	C286.188080,551.771729 268.572418,551.721436 250.971817,551.472900 
	C247.966919,551.430420 246.254364,550.277161 245.691223,547.389221 
	C245.026520,543.980469 244.339310,540.574036 243.780319,537.147339 
	C243.424713,534.967407 244.393387,533.655090 246.695206,533.438599 
	C248.839752,533.236816 250.978378,532.769043 253.119858,532.767578 
	C293.113678,532.739990 333.129944,531.954834 373.093414,533.062744 
	C399.752838,533.801941 426.424286,532.662781 453.011993,534.053345 
	C469.534729,534.917419 485.903381,538.568359 502.366882,540.777161 
	C514.224915,542.368103 524.592468,547.506287 534.547974,553.701172 
	C542.171875,558.445129 550.513123,560.148071 559.356689,560.071167 
	C562.189453,560.046509 564.376343,559.226990 566.240662,556.843628 
	C568.924988,553.411926 572.310486,550.566345 576.552551,549.251526 
	C586.386597,546.203491 594.750427,539.253906 605.409058,538.430054 
	C605.905518,538.391663 606.397522,538.191162 606.888611,538.202026 
	C623.361694,538.566345 639.663879,536.063538 656.049683,535.265991 
	C685.841858,533.815918 715.684509,534.743469 745.506714,534.949829 
	C750.170166,534.982117 754.834473,534.888306 759.997925,534.843872 
z"/>
<path fill="#000000" opacity="1.000000" stroke="none" 
	d="
M714.926636,660.327881 
	C704.806519,659.886475 695.177307,660.340759 685.517395,659.593567 
	C676.966125,658.932068 668.318237,660.561707 659.674683,660.761414 
	C653.499023,660.904053 647.385010,660.158569 641.235535,660.337524 
	C623.792114,660.845093 606.350525,661.702332 588.905151,661.788086 
	C561.830139,661.921143 534.741394,660.952820 507.678162,661.473755 
	C438.428406,662.806641 369.176727,661.983398 299.928223,662.445984 
	C294.623047,662.481384 291.437469,660.836792 288.507385,656.491333 
	C280.759399,645.000793 273.862457,633.055359 267.741455,620.645020 
	C266.963043,619.066711 265.720306,617.525513 266.471466,615.224609 
	C429.454590,616.426270 592.488770,612.253540 755.620605,615.238098 
	C756.487671,618.212524 754.689575,620.488953 753.610474,622.757385 
	C748.170105,634.193359 741.900818,645.161987 734.847351,655.702759 
	C732.077942,659.841492 728.702881,661.338257 723.892395,660.639343 
	C721.110718,660.235168 718.244507,660.412292 714.926636,660.327881 
M403.532928,644.704651 
	C413.101807,644.704651 422.670685,644.704651 432.239594,644.704651 
	C432.249237,644.238464 432.258881,643.772339 432.268524,643.306152 
	C425.061798,643.921692 418.115356,642.157288 411.061707,641.511719 
	C403.943939,640.860352 396.772919,641.384155 389.090942,643.222839 
	C393.914612,645.442017 398.287476,644.502441 403.532928,644.704651 
z"/>
</svg>